<svg xmlns="http://www.w3.org/2000/svg" xmlns:xlink="http://www.w3.org/1999/xlink" width="500" zoomAndPan="magnify" viewBox="0 0 375 374.999991" height="500" preserveAspectRatio="xMidYMid meet" version="1.0"><defs><g/><clipPath id="f837eb3a4f"><path d="M 122.761719 154 L 169 154 L 169 193 L 122.761719 193 Z M 122.761719 154 " clip-rule="nonzero"/></clipPath><clipPath id="22ee9a0531"><path d="M 206 154 L 252.511719 154 L 252.511719 193 L 206 193 Z M 206 154 " clip-rule="nonzero"/></clipPath></defs><path fill="#0b8fac" d="M 201.203125 135.863281 C 201.925781 133.695312 202.136719 131.320312 202.152344 129.035156 C 202.183594 125.5 201.71875 124.101562 198.644531 122.238281 C 183.949219 113.351562 169.984375 123.113281 173.96875 135.566406 C 170.773438 140.757812 172.875 144.542969 176.25 145.664062 C 179.9375 161.53125 195.300781 161.597656 198.847656 145.625 C 202.289062 144.324219 204.027344 140.691406 201.203125 135.863281 Z M 199.246094 143.011719 C 199.339844 141.859375 199.339844 140.683594 199.1875 139.53125 C 197.859375 149.515625 189.691406 161.464844 181.210938 151.871094 C 178.664062 148.972656 176.523438 144.445312 175.859375 139.484375 C 175.699219 140.664062 175.707031 141.898438 175.820312 143.070312 C 174.140625 141.785156 174.15625 139.96875 175.003906 138.050781 C 175.261719 138.542969 175.546875 139.019531 175.859375 139.484375 C 176.457031 134.160156 178.824219 129.710938 179.519531 129.1875 C 180.175781 128.703125 181.089844 128.894531 181.886719 129.074219 C 185.089844 129.769531 188.351562 129.617188 193.332031 129.472656 C 195.148438 129.417969 195.671875 127.828125 197.925781 133.675781 C 198.324219 134.722656 199.378906 138.503906 199.1875 139.53125 C 199.40625 139.324219 199.921875 138.570312 200.089844 138.285156 C 200.824219 140.101562 200.777344 141.785156 199.246094 143.011719 " fill-opacity="1" fill-rule="nonzero"/><path fill="#0b8fac" d="M 190.539062 136.414062 C 189.5 136.414062 188.636719 137.203125 188.523438 138.210938 L 186.46875 138.210938 C 186.203125 135.910156 183.976562 136.414062 179.195312 136.414062 C 176.714844 136.414062 177.171875 139.238281 177.171875 141.273438 C 177.171875 144.714844 180.992188 144.144531 183.617188 144.144531 C 185.195312 144.144531 186.476562 142.851562 186.476562 141.273438 L 186.476562 140.074219 L 188.511719 140.074219 C 188.511719 144.550781 190.261719 144.144531 194.957031 144.144531 C 198.324219 144.144531 197.820312 140.464844 197.820312 138.4375 C 197.820312 135.824219 194.929688 136.414062 190.539062 136.414062 Z M 180.03125 142.421875 C 178.445312 142.421875 178.882812 140.074219 178.882812 138.4375 C 178.882812 138.269531 179.015625 138.125 179.195312 138.125 L 184.453125 138.125 C 184.625 138.125 184.765625 138.269531 184.765625 138.4375 C 184.765625 143.03125 185.28125 142.421875 180.03125 142.421875 Z M 191.375 142.421875 C 189.785156 142.421875 190.222656 140.074219 190.222656 138.4375 C 190.222656 138.269531 190.367188 138.125 190.539062 138.125 L 195.804688 138.125 C 195.976562 138.125 196.109375 138.269531 196.109375 138.4375 C 196.109375 143.03125 196.632812 142.421875 191.375 142.421875 " fill-opacity="1" fill-rule="nonzero"/><path fill="#0b8fac" d="M 159.355469 136.421875 C 160.023438 134.445312 160.546875 129.730469 159.554688 127.925781 C 157.207031 123.664062 142.503906 119.617188 138.527344 129.492188 C 137.671875 131.613281 137.71875 134 138.414062 136.195312 C 135.960938 140.1875 137.578125 143.085938 140.171875 143.953125 C 143.054688 156.328125 154.859375 156.027344 157.542969 143.925781 C 160.183594 142.925781 161.523438 140.132812 159.355469 136.421875 Z M 157.84375 141.917969 C 157.921875 141.035156 157.921875 140.121094 157.808594 139.246094 C 156.902344 145.96875 152.1875 153.171875 147.085938 151.082031 C 143.207031 149.523438 140.476562 143.714844 139.867188 139.199219 C 139.753906 140.113281 139.753906 141.054688 139.839844 141.957031 C 138.558594 140.976562 138.566406 139.578125 139.210938 138.105469 C 139.414062 138.476562 139.632812 138.847656 139.867188 139.199219 C 140.335938 135.113281 142.148438 131.6875 142.691406 131.289062 C 143.195312 130.917969 143.890625 131.070312 144.507812 131.203125 C 146.96875 131.738281 149.46875 131.621094 153.300781 131.507812 C 154.699219 131.460938 155.105469 130.246094 156.835938 134.742188 C 157.160156 135.585938 157.941406 138.496094 157.808594 139.246094 C 157.976562 139.085938 158.367188 138.503906 158.5 138.285156 C 159.0625 139.675781 159.023438 140.976562 157.84375 141.917969 " fill-opacity="1" fill-rule="nonzero"/><path fill="#0b8fac" d="M 153.378906 141.253906 L 144.25 141.253906 C 143.929688 141.253906 143.660156 141.519531 143.660156 141.851562 L 143.660156 146.519531 C 143.660156 146.851562 143.929688 147.117188 144.25 147.117188 L 153.378906 147.117188 C 153.710938 147.117188 153.976562 146.851562 153.976562 146.519531 L 153.976562 141.851562 C 153.976562 141.519531 153.710938 141.253906 153.378906 141.253906 " fill-opacity="1" fill-rule="nonzero"/><path fill="#0b8fac" d="M 153.472656 142.070312 L 159.253906 136.839844 L 158.910156 136.460938 L 153.121094 141.679688 L 153.472656 142.070312 " fill-opacity="1" fill-rule="nonzero"/><path fill="#0b8fac" d="M 138.605469 136.839844 L 144.136719 142.070312 L 144.488281 141.691406 L 138.964844 136.460938 L 138.605469 136.839844 " fill-opacity="1" fill-rule="nonzero"/><path fill="#0b8fac" d="M 142.472656 147.746094 L 142.796875 148.15625 L 144.269531 146.957031 L 143.945312 146.546875 L 142.472656 147.746094 " fill-opacity="1" fill-rule="nonzero"/><path fill="#0b8fac" d="M 153.28125 146.746094 L 154.554688 148.125 L 154.9375 147.773438 L 153.664062 146.394531 L 153.28125 146.746094 " fill-opacity="1" fill-rule="nonzero"/><path fill="#0b8fac" d="M 183.253906 185.550781 L 191.734375 185.550781 C 190.785156 179.621094 189.976562 174.515625 189.007812 168.496094 L 189.378906 168.496094 C 189.472656 166.617188 190.167969 164.988281 190.851562 163.832031 C 191.355469 162.984375 190.738281 161.917969 189.75 161.917969 L 185.242188 161.917969 C 184.253906 161.917969 183.636719 162.984375 184.140625 163.832031 C 184.824219 164.988281 185.519531 166.617188 185.613281 168.496094 L 185.984375 168.496094 C 185.015625 174.515625 184.207031 179.621094 183.253906 185.550781 " fill-opacity="1" fill-rule="nonzero"/><g clip-path="url(#f837eb3a4f)"><path fill="#0b8fac" d="M 156.191406 176.179688 C 156.496094 166.074219 164.613281 162.792969 168.921875 160.445312 C 167.589844 157.59375 165.792969 157.003906 160.460938 154.058594 C 159.574219 155.417969 151.390625 167.992188 150.507812 169.351562 C 148.226562 169.351562 146.769531 169.351562 144.460938 169.351562 C 145.152344 168.261719 144.964844 168.554688 145.78125 167.289062 C 145.125 166.28125 144.375 165.113281 137.179688 154.058594 C 128.128906 159.058594 130.6875 156.109375 123.050781 172.878906 C 122.730469 173.601562 123.015625 174.457031 123.71875 174.828125 L 127.519531 176.871094 C 127.519531 195.390625 124.125 191.949219 155.8125 191.949219 C 155.667969 191.046875 156.164062 177.089844 156.191406 176.179688 " fill-opacity="1" fill-rule="nonzero"/></g><path fill="#0b8fac" d="M 148.1875 162.785156 L 141.09375 151.890625 L 137.796875 153.714844 L 145.914062 166.199219 L 148.1875 162.785156 " fill-opacity="1" fill-rule="nonzero"/><path fill="#0b8fac" d="M 150.125 168.640625 L 159.839844 153.714844 L 156.542969 151.898438 L 145.753906 168.640625 L 150.125 168.640625 " fill-opacity="1" fill-rule="nonzero"/><g clip-path="url(#22ee9a0531)"><path fill="#0b8fac" d="M 251.9375 172.878906 C 244.390625 156.300781 246.902344 159.085938 237.8125 154.058594 C 236.9375 155.417969 228.742188 167.992188 227.867188 169.351562 C 225.578125 169.351562 224.125 169.351562 221.8125 169.351562 C 222.5625 168.175781 222.382812 168.460938 223.144531 167.289062 C 222.230469 165.894531 226.003906 171.683594 214.53125 154.058594 C 209.246094 156.984375 207.410156 157.574219 206.070312 160.445312 C 220.519531 168.328125 218.648438 171.074219 219.246094 190.847656 C 219.257812 191.21875 219.226562 191.589844 219.179688 191.949219 C 250.988281 191.949219 247.472656 195.238281 247.472656 176.871094 L 251.273438 174.828125 C 251.976562 174.457031 252.261719 173.601562 251.9375 172.878906 " fill-opacity="1" fill-rule="nonzero"/></g><path fill="#0b8fac" d="M 197.050781 157.707031 C 196.164062 159.855469 190.890625 172.632812 190.015625 174.761719 L 191.734375 185.550781 L 183.253906 185.550781 L 184.976562 174.761719 C 182.066406 167.707031 180.851562 164.761719 177.941406 157.707031 C 156.238281 169.542969 158.40625 166.265625 157.65625 190.90625 C 157.589844 193.121094 159.367188 194.984375 161.601562 194.984375 L 213.390625 194.984375 C 215.625 194.984375 217.402344 193.121094 217.335938 190.90625 C 216.585938 166.226562 218.476562 169.390625 197.050781 157.707031 " fill-opacity="1" fill-rule="nonzero"/><path fill="#0b8fac" d="M 225.539062 162.785156 L 218.457031 151.890625 L 215.148438 153.714844 L 223.277344 166.199219 L 225.539062 162.785156 " fill-opacity="1" fill-rule="nonzero"/><path fill="#0b8fac" d="M 227.480469 168.640625 L 237.195312 153.714844 L 233.894531 151.898438 L 223.105469 168.640625 L 227.480469 168.640625 " fill-opacity="1" fill-rule="nonzero"/><path fill="#0b8fac" d="M 236.710938 136.421875 C 237.375 134.4375 237.90625 129.730469 236.910156 127.925781 C 235.808594 125.9375 229.796875 122.6875 224.332031 123.398438 C 218.304688 124.167969 213.609375 129.425781 215.777344 136.195312 C 213.316406 140.1875 214.929688 143.085938 217.527344 143.953125 C 220.464844 156.585938 232.261719 155.816406 234.894531 143.925781 C 237.546875 142.925781 238.878906 140.132812 236.710938 136.421875 Z M 235.207031 141.917969 C 235.285156 141.035156 235.273438 140.121094 235.160156 139.246094 C 234.4375 144.648438 231.128906 150.617188 227.117188 151.378906 C 222.496094 152.261719 218.085938 145.585938 217.230469 139.199219 C 217.109375 140.113281 217.117188 141.054688 217.203125 141.957031 C 215.910156 140.976562 215.917969 139.578125 216.574219 138.105469 C 216.773438 138.476562 216.992188 138.847656 217.230469 139.199219 C 217.515625 136.671875 218.296875 134.199219 219.53125 131.964844 C 220.09375 130.9375 220.664062 130.9375 221.859375 131.203125 C 224.324219 131.738281 226.824219 131.621094 230.664062 131.507812 C 231.253906 131.488281 232.070312 131.117188 232.546875 131.539062 C 233.648438 132.507812 235.378906 138.050781 235.160156 139.246094 C 235.332031 139.085938 235.722656 138.503906 235.855469 138.285156 C 236.414062 139.675781 236.378906 140.976562 235.207031 141.917969 " fill-opacity="1" fill-rule="nonzero"/><path fill="#0b8fac" d="M 230.738281 141.253906 L 221.613281 141.253906 C 221.28125 141.253906 221.015625 141.519531 221.015625 141.851562 L 221.015625 146.519531 C 221.015625 146.851562 221.28125 147.117188 221.613281 147.117188 L 230.738281 147.117188 C 231.0625 147.117188 231.328125 146.851562 231.328125 146.519531 L 231.328125 141.851562 C 231.328125 141.519531 231.0625 141.253906 230.738281 141.253906 " fill-opacity="1" fill-rule="nonzero"/><path fill="#0b8fac" d="M 230.824219 142.070312 L 236.613281 136.839844 L 236.261719 136.460938 L 230.472656 141.679688 L 230.824219 142.070312 " fill-opacity="1" fill-rule="nonzero"/><path fill="#0b8fac" d="M 215.957031 136.839844 L 221.488281 142.070312 L 221.84375 141.691406 L 216.320312 136.460938 L 215.957031 136.839844 " fill-opacity="1" fill-rule="nonzero"/><path fill="#0b8fac" d="M 219.828125 147.746094 L 220.148438 148.15625 L 221.632812 146.957031 L 221.300781 146.546875 L 219.828125 147.746094 " fill-opacity="1" fill-rule="nonzero"/><path fill="#0b8fac" d="M 230.636719 146.746094 L 231.910156 148.125 L 232.289062 147.773438 L 231.015625 146.394531 L 230.636719 146.746094 " fill-opacity="1" fill-rule="nonzero"/><g fill="#057189" fill-opacity="1"><g transform="translate(92.61328, 234.928257)"><g><path d="M 3.4375 0 C 3.195312 0 2.992188 -0.078125 2.828125 -0.234375 C 2.671875 -0.398438 2.59375 -0.613281 2.59375 -0.875 L 2.59375 -23.625 C 2.59375 -23.882812 2.671875 -24.09375 2.828125 -24.25 C 2.992188 -24.414062 3.195312 -24.5 3.4375 -24.5 L 12.25 -24.5 C 14.582031 -24.5 16.53125 -24.128906 18.09375 -23.390625 C 19.65625 -22.660156 20.847656 -21.585938 21.671875 -20.171875 C 22.503906 -18.765625 22.945312 -17.019531 23 -14.9375 C 23.039062 -13.914062 23.0625 -13.019531 23.0625 -12.25 C 23.0625 -11.476562 23.039062 -10.59375 23 -9.59375 C 22.925781 -7.414062 22.492188 -5.613281 21.703125 -4.1875 C 20.910156 -2.769531 19.75 -1.71875 18.21875 -1.03125 C 16.6875 -0.34375 14.753906 0 12.421875 0 Z M 8.15625 -4.546875 L 12.25 -4.546875 C 13.414062 -4.546875 14.363281 -4.710938 15.09375 -5.046875 C 15.832031 -5.390625 16.390625 -5.941406 16.765625 -6.703125 C 17.140625 -7.460938 17.335938 -8.445312 17.359375 -9.65625 C 17.378906 -10.332031 17.394531 -10.9375 17.40625 -11.46875 C 17.425781 -12.007812 17.425781 -12.546875 17.40625 -13.078125 C 17.394531 -13.617188 17.378906 -14.21875 17.359375 -14.875 C 17.316406 -16.625 16.867188 -17.90625 16.015625 -18.71875 C 15.160156 -19.539062 13.847656 -19.953125 12.078125 -19.953125 L 8.15625 -19.953125 Z M 8.15625 -4.546875 "/></g></g></g><g fill="#057189" fill-opacity="1"><g transform="translate(117.422673, 234.928257)"><g><path d="M 12.3125 0.34375 C 10.195312 0.34375 8.367188 -0.00390625 6.828125 -0.703125 C 5.285156 -1.398438 4.082031 -2.453125 3.21875 -3.859375 C 2.351562 -5.273438 1.882812 -7.054688 1.8125 -9.203125 C 1.789062 -10.203125 1.78125 -11.195312 1.78125 -12.1875 C 1.78125 -13.1875 1.789062 -14.195312 1.8125 -15.21875 C 1.882812 -17.320312 2.359375 -19.09375 3.234375 -20.53125 C 4.109375 -21.96875 5.320312 -23.046875 6.875 -23.765625 C 8.425781 -24.484375 10.238281 -24.84375 12.3125 -24.84375 C 14.375 -24.84375 16.179688 -24.484375 17.734375 -23.765625 C 19.285156 -23.046875 20.503906 -21.96875 21.390625 -20.53125 C 22.273438 -19.09375 22.75 -17.320312 22.8125 -15.21875 C 22.863281 -14.195312 22.890625 -13.1875 22.890625 -12.1875 C 22.890625 -11.195312 22.863281 -10.203125 22.8125 -9.203125 C 22.75 -7.054688 22.28125 -5.273438 21.40625 -3.859375 C 20.53125 -2.453125 19.320312 -1.398438 17.78125 -0.703125 C 16.238281 -0.00390625 14.414062 0.34375 12.3125 0.34375 Z M 12.3125 -4.203125 C 13.664062 -4.203125 14.78125 -4.609375 15.65625 -5.421875 C 16.53125 -6.242188 16.992188 -7.5625 17.046875 -9.375 C 17.085938 -10.40625 17.109375 -11.367188 17.109375 -12.265625 C 17.109375 -13.160156 17.085938 -14.113281 17.046875 -15.125 C 17.023438 -16.332031 16.800781 -17.320312 16.375 -18.09375 C 15.957031 -18.863281 15.40625 -19.421875 14.71875 -19.765625 C 14.03125 -20.117188 13.226562 -20.296875 12.3125 -20.296875 C 11.425781 -20.296875 10.632812 -20.117188 9.9375 -19.765625 C 9.238281 -19.421875 8.675781 -18.863281 8.25 -18.09375 C 7.832031 -17.320312 7.601562 -16.332031 7.5625 -15.125 C 7.539062 -14.113281 7.53125 -13.160156 7.53125 -12.265625 C 7.53125 -11.367188 7.539062 -10.40625 7.5625 -9.375 C 7.632812 -7.5625 8.097656 -6.242188 8.953125 -5.421875 C 9.816406 -4.609375 10.9375 -4.203125 12.3125 -4.203125 Z M 12.3125 -4.203125 "/></g></g></g><g fill="#057189" fill-opacity="1"><g transform="translate(142.022112, 234.928257)"><g><path d="M 12.3125 0.34375 C 10.144531 0.34375 8.289062 -0.0195312 6.75 -0.75 C 5.207031 -1.488281 4.015625 -2.5625 3.171875 -3.96875 C 2.335938 -5.382812 1.875 -7.109375 1.78125 -9.140625 C 1.757812 -10.085938 1.75 -11.109375 1.75 -12.203125 C 1.75 -13.304688 1.757812 -14.359375 1.78125 -15.359375 C 1.875 -17.367188 2.347656 -19.078125 3.203125 -20.484375 C 4.054688 -21.898438 5.25 -22.976562 6.78125 -23.71875 C 8.320312 -24.46875 10.164062 -24.84375 12.3125 -24.84375 C 13.90625 -24.84375 15.335938 -24.644531 16.609375 -24.25 C 17.878906 -23.851562 18.976562 -23.28125 19.90625 -22.53125 C 20.84375 -21.789062 21.570312 -20.914062 22.09375 -19.90625 C 22.625 -18.90625 22.898438 -17.789062 22.921875 -16.5625 C 22.941406 -16.34375 22.875 -16.160156 22.71875 -16.015625 C 22.570312 -15.878906 22.394531 -15.8125 22.1875 -15.8125 L 18.171875 -15.8125 C 17.890625 -15.8125 17.664062 -15.875 17.5 -16 C 17.332031 -16.132812 17.203125 -16.363281 17.109375 -16.6875 C 16.765625 -18.09375 16.179688 -19.046875 15.359375 -19.546875 C 14.546875 -20.046875 13.53125 -20.296875 12.3125 -20.296875 C 10.894531 -20.296875 9.765625 -19.898438 8.921875 -19.109375 C 8.085938 -18.316406 7.632812 -17.007812 7.5625 -15.1875 C 7.488281 -13.269531 7.488281 -11.3125 7.5625 -9.3125 C 7.632812 -7.488281 8.085938 -6.179688 8.921875 -5.390625 C 9.765625 -4.597656 10.894531 -4.203125 12.3125 -4.203125 C 13.53125 -4.203125 14.550781 -4.457031 15.375 -4.96875 C 16.207031 -5.476562 16.785156 -6.425781 17.109375 -7.8125 C 17.203125 -8.132812 17.332031 -8.359375 17.5 -8.484375 C 17.664062 -8.617188 17.890625 -8.6875 18.171875 -8.6875 L 22.1875 -8.6875 C 22.394531 -8.6875 22.570312 -8.613281 22.71875 -8.46875 C 22.875 -8.332031 22.941406 -8.15625 22.921875 -7.9375 C 22.898438 -6.707031 22.625 -5.585938 22.09375 -4.578125 C 21.570312 -3.578125 20.84375 -2.703125 19.90625 -1.953125 C 18.976562 -1.210938 17.878906 -0.644531 16.609375 -0.25 C 15.335938 0.144531 13.90625 0.34375 12.3125 0.34375 Z M 12.3125 0.34375 "/></g></g></g><g fill="#057189" fill-opacity="1"><g transform="translate(166.271638, 234.928257)"><g><path d="M 3.4375 0 C 3.195312 0 2.992188 -0.078125 2.828125 -0.234375 C 2.671875 -0.398438 2.59375 -0.613281 2.59375 -0.875 L 2.59375 -23.625 C 2.59375 -23.882812 2.671875 -24.09375 2.828125 -24.25 C 2.992188 -24.414062 3.195312 -24.5 3.4375 -24.5 L 7.390625 -24.5 C 7.617188 -24.5 7.8125 -24.414062 7.96875 -24.25 C 8.132812 -24.09375 8.21875 -23.882812 8.21875 -23.625 L 8.21875 -4.71875 L 19.078125 -4.71875 C 19.328125 -4.71875 19.535156 -4.632812 19.703125 -4.46875 C 19.867188 -4.3125 19.953125 -4.101562 19.953125 -3.84375 L 19.953125 -0.875 C 19.953125 -0.613281 19.867188 -0.398438 19.703125 -0.234375 C 19.535156 -0.078125 19.328125 0 19.078125 0 Z M 3.4375 0 "/></g></g></g><g fill="#057189" fill-opacity="1"><g transform="translate(186.846992, 234.928257)"><g><path d="M 3.4375 0 C 3.195312 0 2.992188 -0.078125 2.828125 -0.234375 C 2.671875 -0.398438 2.59375 -0.613281 2.59375 -0.875 L 2.59375 -23.625 C 2.59375 -23.882812 2.671875 -24.09375 2.828125 -24.25 C 2.992188 -24.414062 3.195312 -24.5 3.4375 -24.5 L 19.3125 -24.5 C 19.570312 -24.5 19.78125 -24.414062 19.9375 -24.25 C 20.101562 -24.09375 20.1875 -23.882812 20.1875 -23.625 L 20.1875 -20.828125 C 20.1875 -20.566406 20.101562 -20.351562 19.9375 -20.1875 C 19.78125 -20.03125 19.570312 -19.953125 19.3125 -19.953125 L 7.984375 -19.953125 L 7.984375 -14.484375 L 18.546875 -14.484375 C 18.804688 -14.484375 19.015625 -14.398438 19.171875 -14.234375 C 19.335938 -14.078125 19.421875 -13.867188 19.421875 -13.609375 L 19.421875 -11.03125 C 19.421875 -10.789062 19.335938 -10.582031 19.171875 -10.40625 C 19.015625 -10.238281 18.804688 -10.15625 18.546875 -10.15625 L 7.984375 -10.15625 L 7.984375 -4.546875 L 19.59375 -4.546875 C 19.851562 -4.546875 20.0625 -4.460938 20.21875 -4.296875 C 20.382812 -4.140625 20.46875 -3.929688 20.46875 -3.671875 L 20.46875 -0.875 C 20.46875 -0.613281 20.382812 -0.398438 20.21875 -0.234375 C 20.0625 -0.078125 19.851562 0 19.59375 0 Z M 3.4375 0 "/></g></g></g><g fill="#057189" fill-opacity="1"><g transform="translate(208.927004, 234.928257)"><g><path d="M 1.15625 0 C 0.945312 0 0.769531 -0.0703125 0.625 -0.21875 C 0.488281 -0.375 0.421875 -0.546875 0.421875 -0.734375 C 0.421875 -0.847656 0.429688 -0.953125 0.453125 -1.046875 L 8.78125 -23.5625 C 8.851562 -23.8125 8.992188 -24.03125 9.203125 -24.21875 C 9.410156 -24.40625 9.703125 -24.5 10.078125 -24.5 L 14.5625 -24.5 C 14.9375 -24.5 15.226562 -24.40625 15.4375 -24.21875 C 15.644531 -24.03125 15.796875 -23.8125 15.890625 -23.5625 L 24.1875 -1.046875 C 24.226562 -0.953125 24.25 -0.847656 24.25 -0.734375 C 24.25 -0.546875 24.171875 -0.375 24.015625 -0.21875 C 23.867188 -0.0703125 23.691406 0 23.484375 0 L 19.8125 0 C 19.476562 0 19.226562 -0.078125 19.0625 -0.234375 C 18.90625 -0.398438 18.804688 -0.554688 18.765625 -0.703125 L 17.25 -4.625 L 7.390625 -4.625 L 5.921875 -0.703125 C 5.847656 -0.554688 5.734375 -0.398438 5.578125 -0.234375 C 5.429688 -0.078125 5.179688 0 4.828125 0 Z M 8.71875 -9.140625 L 15.921875 -9.140625 L 12.3125 -19.1875 Z M 8.71875 -9.140625 "/></g></g></g><g fill="#057189" fill-opacity="1"><g transform="translate(233.56144, 234.928257)"><g><path d="M 3.4375 0 C 3.195312 0 2.992188 -0.078125 2.828125 -0.234375 C 2.671875 -0.398438 2.59375 -0.613281 2.59375 -0.875 L 2.59375 -23.625 C 2.59375 -23.882812 2.671875 -24.09375 2.828125 -24.25 C 2.992188 -24.414062 3.195312 -24.5 3.4375 -24.5 L 12.734375 -24.5 C 15.648438 -24.5 17.945312 -23.828125 19.625 -22.484375 C 21.3125 -21.140625 22.15625 -19.207031 22.15625 -16.6875 C 22.15625 -14.988281 21.742188 -13.566406 20.921875 -12.421875 C 20.109375 -11.273438 19.015625 -10.425781 17.640625 -9.875 L 22.609375 -1.125 C 22.679688 -0.976562 22.71875 -0.847656 22.71875 -0.734375 C 22.71875 -0.546875 22.640625 -0.375 22.484375 -0.21875 C 22.335938 -0.0703125 22.171875 0 21.984375 0 L 18.0625 0 C 17.644531 0 17.328125 -0.109375 17.109375 -0.328125 C 16.898438 -0.554688 16.75 -0.757812 16.65625 -0.9375 L 12.390625 -8.953125 L 8.15625 -8.953125 L 8.15625 -0.875 C 8.15625 -0.613281 8.070312 -0.398438 7.90625 -0.234375 C 7.75 -0.078125 7.539062 0 7.28125 0 Z M 8.15625 -13.40625 L 12.671875 -13.40625 C 13.929688 -13.40625 14.867188 -13.695312 15.484375 -14.28125 C 16.109375 -14.863281 16.421875 -15.679688 16.421875 -16.734375 C 16.421875 -17.785156 16.113281 -18.613281 15.5 -19.21875 C 14.894531 -19.820312 13.953125 -20.125 12.671875 -20.125 L 8.15625 -20.125 Z M 8.15625 -13.40625 "/></g></g></g><g fill="#057189" fill-opacity="1"><g transform="translate(257.426055, 234.928257)"><g><path d="M 3.4375 0 C 3.195312 0 2.992188 -0.078125 2.828125 -0.234375 C 2.671875 -0.398438 2.59375 -0.613281 2.59375 -0.875 L 2.59375 -23.625 C 2.59375 -23.882812 2.671875 -24.09375 2.828125 -24.25 C 2.992188 -24.414062 3.195312 -24.5 3.4375 -24.5 L 6.65625 -24.5 C 7 -24.5 7.253906 -24.414062 7.421875 -24.25 C 7.585938 -24.09375 7.691406 -23.96875 7.734375 -23.875 L 17.046875 -9.3125 L 17.046875 -23.625 C 17.046875 -23.882812 17.125 -24.09375 17.28125 -24.25 C 17.445312 -24.414062 17.660156 -24.5 17.921875 -24.5 L 21.484375 -24.5 C 21.742188 -24.5 21.953125 -24.414062 22.109375 -24.25 C 22.273438 -24.09375 22.359375 -23.882812 22.359375 -23.625 L 22.359375 -0.875 C 22.359375 -0.644531 22.273438 -0.441406 22.109375 -0.265625 C 21.953125 -0.0859375 21.742188 0 21.484375 0 L 18.265625 0 C 17.921875 0 17.664062 -0.0859375 17.5 -0.265625 C 17.332031 -0.441406 17.226562 -0.5625 17.1875 -0.625 L 7.90625 -14.734375 L 7.90625 -0.875 C 7.90625 -0.613281 7.820312 -0.398438 7.65625 -0.234375 C 7.5 -0.078125 7.289062 0 7.03125 0 Z M 3.4375 0 "/></g></g></g><g fill="#057189" fill-opacity="1"><g transform="translate(118.535153, 258.428289)"><g><path d="M 3.796875 0 C 3.679688 0 3.585938 -0.03125 3.515625 -0.09375 C 3.453125 -0.164062 3.421875 -0.257812 3.421875 -0.375 L 3.421875 -8.40625 L 0.6875 -8.40625 C 0.59375 -8.40625 0.507812 -8.4375 0.4375 -8.5 C 0.363281 -8.570312 0.328125 -8.664062 0.328125 -8.78125 L 0.328125 -10.125 C 0.328125 -10.238281 0.363281 -10.328125 0.4375 -10.390625 C 0.507812 -10.460938 0.59375 -10.5 0.6875 -10.5 L 8.546875 -10.5 C 8.660156 -10.5 8.75 -10.460938 8.8125 -10.390625 C 8.882812 -10.328125 8.921875 -10.238281 8.921875 -10.125 L 8.921875 -8.78125 C 8.921875 -8.664062 8.882812 -8.570312 8.8125 -8.5 C 8.75 -8.4375 8.660156 -8.40625 8.546875 -8.40625 L 5.828125 -8.40625 L 5.828125 -0.375 C 5.828125 -0.257812 5.789062 -0.164062 5.71875 -0.09375 C 5.65625 -0.03125 5.566406 0 5.453125 0 Z M 3.796875 0 "/></g></g></g><g fill="#057189" fill-opacity="1"><g transform="translate(129.290138, 258.428289)"><g><path d="M 1.46875 0 C 1.363281 0 1.273438 -0.03125 1.203125 -0.09375 C 1.140625 -0.164062 1.109375 -0.257812 1.109375 -0.375 L 1.109375 -10.125 C 1.109375 -10.238281 1.140625 -10.328125 1.203125 -10.390625 C 1.273438 -10.460938 1.363281 -10.5 1.46875 -10.5 L 8.28125 -10.5 C 8.382812 -10.5 8.472656 -10.460938 8.546875 -10.390625 C 8.617188 -10.328125 8.65625 -10.238281 8.65625 -10.125 L 8.65625 -8.921875 C 8.65625 -8.816406 8.617188 -8.726562 8.546875 -8.65625 C 8.472656 -8.582031 8.382812 -8.546875 8.28125 -8.546875 L 3.421875 -8.546875 L 3.421875 -6.203125 L 7.953125 -6.203125 C 8.054688 -6.203125 8.144531 -6.164062 8.21875 -6.09375 C 8.289062 -6.03125 8.328125 -5.941406 8.328125 -5.828125 L 8.328125 -4.71875 C 8.328125 -4.625 8.289062 -4.535156 8.21875 -4.453125 C 8.144531 -4.378906 8.054688 -4.34375 7.953125 -4.34375 L 3.421875 -4.34375 L 3.421875 -1.953125 L 8.40625 -1.953125 C 8.507812 -1.953125 8.597656 -1.914062 8.671875 -1.84375 C 8.742188 -1.769531 8.78125 -1.679688 8.78125 -1.578125 L 8.78125 -0.375 C 8.78125 -0.257812 8.742188 -0.164062 8.671875 -0.09375 C 8.597656 -0.03125 8.507812 0 8.40625 0 Z M 1.46875 0 "/></g></g></g><g fill="#057189" fill-opacity="1"><g transform="translate(140.255134, 258.428289)"><g><path d="M 4.890625 0.15625 C 3.929688 0.15625 3.128906 0.015625 2.484375 -0.265625 C 1.835938 -0.546875 1.347656 -0.910156 1.015625 -1.359375 C 0.691406 -1.816406 0.519531 -2.300781 0.5 -2.8125 C 0.5 -2.894531 0.523438 -2.96875 0.578125 -3.03125 C 0.640625 -3.09375 0.71875 -3.125 0.8125 -3.125 L 2.4375 -3.125 C 2.5625 -3.125 2.65625 -3.097656 2.71875 -3.046875 C 2.789062 -2.992188 2.859375 -2.925781 2.921875 -2.84375 C 2.992188 -2.664062 3.109375 -2.492188 3.265625 -2.328125 C 3.421875 -2.171875 3.628906 -2.039062 3.890625 -1.9375 C 4.160156 -1.84375 4.492188 -1.796875 4.890625 -1.796875 C 5.535156 -1.796875 6.019531 -1.898438 6.34375 -2.109375 C 6.675781 -2.328125 6.84375 -2.613281 6.84375 -2.96875 C 6.84375 -3.21875 6.753906 -3.421875 6.578125 -3.578125 C 6.398438 -3.742188 6.125 -3.890625 5.75 -4.015625 C 5.375 -4.148438 4.878906 -4.285156 4.265625 -4.421875 C 3.515625 -4.597656 2.875 -4.8125 2.34375 -5.0625 C 1.820312 -5.3125 1.425781 -5.640625 1.15625 -6.046875 C 0.894531 -6.453125 0.765625 -6.957031 0.765625 -7.5625 C 0.765625 -8.15625 0.925781 -8.6875 1.25 -9.15625 C 1.582031 -9.625 2.050781 -9.988281 2.65625 -10.25 C 3.257812 -10.519531 3.972656 -10.65625 4.796875 -10.65625 C 5.472656 -10.65625 6.066406 -10.5625 6.578125 -10.375 C 7.085938 -10.195312 7.515625 -9.960938 7.859375 -9.671875 C 8.210938 -9.378906 8.476562 -9.066406 8.65625 -8.734375 C 8.832031 -8.410156 8.925781 -8.09375 8.9375 -7.78125 C 8.9375 -7.695312 8.910156 -7.617188 8.859375 -7.546875 C 8.804688 -7.484375 8.726562 -7.453125 8.625 -7.453125 L 6.9375 -7.453125 C 6.84375 -7.453125 6.753906 -7.472656 6.671875 -7.515625 C 6.597656 -7.554688 6.53125 -7.625 6.46875 -7.71875 C 6.414062 -7.988281 6.238281 -8.21875 5.9375 -8.40625 C 5.644531 -8.601562 5.265625 -8.703125 4.796875 -8.703125 C 4.304688 -8.703125 3.914062 -8.613281 3.625 -8.4375 C 3.34375 -8.257812 3.203125 -7.988281 3.203125 -7.625 C 3.203125 -7.382812 3.273438 -7.179688 3.421875 -7.015625 C 3.578125 -6.847656 3.828125 -6.703125 4.171875 -6.578125 C 4.515625 -6.453125 4.972656 -6.320312 5.546875 -6.1875 C 6.421875 -6 7.128906 -5.773438 7.671875 -5.515625 C 8.222656 -5.265625 8.628906 -4.941406 8.890625 -4.546875 C 9.148438 -4.148438 9.28125 -3.65625 9.28125 -3.0625 C 9.28125 -2.394531 9.09375 -1.816406 8.71875 -1.328125 C 8.351562 -0.847656 7.835938 -0.476562 7.171875 -0.21875 C 6.515625 0.03125 5.753906 0.15625 4.890625 0.15625 Z M 4.890625 0.15625 "/></g></g></g><g fill="#057189" fill-opacity="1"><g transform="translate(151.535128, 258.428289)"><g><path d="M 3.796875 0 C 3.679688 0 3.585938 -0.03125 3.515625 -0.09375 C 3.453125 -0.164062 3.421875 -0.257812 3.421875 -0.375 L 3.421875 -8.40625 L 0.6875 -8.40625 C 0.59375 -8.40625 0.507812 -8.4375 0.4375 -8.5 C 0.363281 -8.570312 0.328125 -8.664062 0.328125 -8.78125 L 0.328125 -10.125 C 0.328125 -10.238281 0.363281 -10.328125 0.4375 -10.390625 C 0.507812 -10.460938 0.59375 -10.5 0.6875 -10.5 L 8.546875 -10.5 C 8.660156 -10.5 8.75 -10.460938 8.8125 -10.390625 C 8.882812 -10.328125 8.921875 -10.238281 8.921875 -10.125 L 8.921875 -8.78125 C 8.921875 -8.664062 8.882812 -8.570312 8.8125 -8.5 C 8.75 -8.4375 8.660156 -8.40625 8.546875 -8.40625 L 5.828125 -8.40625 L 5.828125 -0.375 C 5.828125 -0.257812 5.789062 -0.164062 5.71875 -0.09375 C 5.65625 -0.03125 5.566406 0 5.453125 0 Z M 3.796875 0 "/></g></g></g><g fill="#057189" fill-opacity="1"><g transform="translate(162.290113, 258.428289)"><g/></g></g><g fill="#057189" fill-opacity="1"><g transform="translate(167.105111, 258.428289)"><g><path d="M 4.21875 0 C 4.101562 0 4.007812 -0.03125 3.9375 -0.09375 C 3.875 -0.164062 3.84375 -0.257812 3.84375 -0.375 L 3.84375 -3.671875 L 0.328125 -10.015625 C 0.316406 -10.046875 0.304688 -10.070312 0.296875 -10.09375 C 0.285156 -10.125 0.28125 -10.15625 0.28125 -10.1875 C 0.28125 -10.269531 0.3125 -10.34375 0.375 -10.40625 C 0.445312 -10.46875 0.519531 -10.5 0.59375 -10.5 L 2.203125 -10.5 C 2.335938 -10.5 2.441406 -10.460938 2.515625 -10.390625 C 2.597656 -10.328125 2.65625 -10.265625 2.6875 -10.203125 L 5.046875 -6.078125 L 7.390625 -10.203125 C 7.421875 -10.265625 7.476562 -10.328125 7.5625 -10.390625 C 7.644531 -10.460938 7.753906 -10.5 7.890625 -10.5 L 9.484375 -10.5 C 9.566406 -10.5 9.640625 -10.46875 9.703125 -10.40625 C 9.765625 -10.34375 9.796875 -10.269531 9.796875 -10.1875 C 9.796875 -10.15625 9.789062 -10.125 9.78125 -10.09375 C 9.78125 -10.070312 9.769531 -10.046875 9.75 -10.015625 L 6.234375 -3.671875 L 6.234375 -0.375 C 6.234375 -0.257812 6.195312 -0.164062 6.125 -0.09375 C 6.0625 -0.03125 5.972656 0 5.859375 0 Z M 4.21875 0 "/></g></g></g><g fill="#057189" fill-opacity="1"><g transform="translate(178.685101, 258.428289)"><g><path d="M 5.28125 0.15625 C 4.375 0.15625 3.585938 0.00390625 2.921875 -0.296875 C 2.265625 -0.597656 1.75 -1.050781 1.375 -1.65625 C 1.007812 -2.257812 0.8125 -3.019531 0.78125 -3.9375 C 0.769531 -4.375 0.765625 -4.800781 0.765625 -5.21875 C 0.765625 -5.644531 0.769531 -6.082031 0.78125 -6.53125 C 0.8125 -7.425781 1.015625 -8.179688 1.390625 -8.796875 C 1.765625 -9.410156 2.28125 -9.875 2.9375 -10.1875 C 3.601562 -10.5 4.382812 -10.65625 5.28125 -10.65625 C 6.15625 -10.65625 6.925781 -10.5 7.59375 -10.1875 C 8.257812 -9.875 8.78125 -9.410156 9.15625 -8.796875 C 9.539062 -8.179688 9.75 -7.425781 9.78125 -6.53125 C 9.800781 -6.082031 9.8125 -5.644531 9.8125 -5.21875 C 9.8125 -4.800781 9.800781 -4.375 9.78125 -3.9375 C 9.75 -3.019531 9.546875 -2.257812 9.171875 -1.65625 C 8.796875 -1.050781 8.273438 -0.597656 7.609375 -0.296875 C 6.953125 0.00390625 6.175781 0.15625 5.28125 0.15625 Z M 5.28125 -1.796875 C 5.863281 -1.796875 6.34375 -1.96875 6.71875 -2.3125 C 7.09375 -2.664062 7.289062 -3.234375 7.3125 -4.015625 C 7.320312 -4.460938 7.328125 -4.875 7.328125 -5.25 C 7.328125 -5.632812 7.320312 -6.046875 7.3125 -6.484375 C 7.300781 -7.003906 7.203125 -7.425781 7.015625 -7.75 C 6.835938 -8.082031 6.597656 -8.320312 6.296875 -8.46875 C 6.003906 -8.625 5.664062 -8.703125 5.28125 -8.703125 C 4.894531 -8.703125 4.550781 -8.625 4.25 -8.46875 C 3.957031 -8.320312 3.71875 -8.082031 3.53125 -7.75 C 3.351562 -7.425781 3.253906 -7.003906 3.234375 -6.484375 C 3.222656 -6.046875 3.21875 -5.632812 3.21875 -5.25 C 3.21875 -4.875 3.222656 -4.460938 3.234375 -4.015625 C 3.265625 -3.234375 3.460938 -2.664062 3.828125 -2.3125 C 4.203125 -1.96875 4.6875 -1.796875 5.28125 -1.796875 Z M 5.28125 -1.796875 "/></g></g></g><g fill="#057189" fill-opacity="1"><g transform="translate(190.730087, 258.428289)"><g><path d="M 5.40625 0.15625 C 4.519531 0.15625 3.742188 0.0078125 3.078125 -0.28125 C 2.421875 -0.582031 1.910156 -1.039062 1.546875 -1.65625 C 1.191406 -2.269531 1.015625 -3.050781 1.015625 -4 L 1.015625 -10.125 C 1.015625 -10.238281 1.050781 -10.328125 1.125 -10.390625 C 1.195312 -10.460938 1.28125 -10.5 1.375 -10.5 L 3.03125 -10.5 C 3.132812 -10.5 3.222656 -10.460938 3.296875 -10.390625 C 3.367188 -10.328125 3.40625 -10.238281 3.40625 -10.125 L 3.40625 -4.015625 C 3.40625 -3.285156 3.578125 -2.738281 3.921875 -2.375 C 4.273438 -2.019531 4.769531 -1.84375 5.40625 -1.84375 C 6.019531 -1.84375 6.5 -2.019531 6.84375 -2.375 C 7.195312 -2.738281 7.375 -3.285156 7.375 -4.015625 L 7.375 -10.125 C 7.375 -10.238281 7.410156 -10.328125 7.484375 -10.390625 C 7.566406 -10.460938 7.65625 -10.5 7.75 -10.5 L 9.40625 -10.5 C 9.507812 -10.5 9.59375 -10.460938 9.65625 -10.390625 C 9.726562 -10.328125 9.765625 -10.238281 9.765625 -10.125 L 9.765625 -4 C 9.765625 -3.050781 9.585938 -2.269531 9.234375 -1.65625 C 8.878906 -1.039062 8.375 -0.582031 7.71875 -0.28125 C 7.0625 0.0078125 6.289062 0.15625 5.40625 0.15625 Z M 5.40625 0.15625 "/></g></g></g><g fill="#057189" fill-opacity="1"><g transform="translate(203.015078, 258.428289)"><g><path d="M 1.46875 0 C 1.363281 0 1.273438 -0.03125 1.203125 -0.09375 C 1.140625 -0.164062 1.109375 -0.257812 1.109375 -0.375 L 1.109375 -10.125 C 1.109375 -10.238281 1.140625 -10.328125 1.203125 -10.390625 C 1.273438 -10.460938 1.363281 -10.5 1.46875 -10.5 L 5.453125 -10.5 C 6.703125 -10.5 7.6875 -10.210938 8.40625 -9.640625 C 9.132812 -9.066406 9.5 -8.238281 9.5 -7.15625 C 9.5 -6.425781 9.320312 -5.816406 8.96875 -5.328125 C 8.613281 -4.835938 8.144531 -4.472656 7.5625 -4.234375 L 9.6875 -0.484375 C 9.71875 -0.421875 9.734375 -0.363281 9.734375 -0.3125 C 9.734375 -0.226562 9.703125 -0.15625 9.640625 -0.09375 C 9.578125 -0.03125 9.503906 0 9.421875 0 L 7.734375 0 C 7.554688 0 7.421875 -0.046875 7.328125 -0.140625 C 7.242188 -0.234375 7.179688 -0.320312 7.140625 -0.40625 L 5.3125 -3.84375 L 3.5 -3.84375 L 3.5 -0.375 C 3.5 -0.257812 3.460938 -0.164062 3.390625 -0.09375 C 3.316406 -0.03125 3.226562 0 3.125 0 Z M 3.5 -5.75 L 5.4375 -5.75 C 5.96875 -5.75 6.363281 -5.875 6.625 -6.125 C 6.894531 -6.375 7.03125 -6.722656 7.03125 -7.171875 C 7.03125 -7.617188 6.898438 -7.972656 6.640625 -8.234375 C 6.378906 -8.492188 5.976562 -8.625 5.4375 -8.625 L 3.5 -8.625 Z M 3.5 -5.75 "/></g></g></g><g fill="#057189" fill-opacity="1"><g transform="translate(214.745066, 258.428289)"><g><path d="M 4.890625 0.15625 C 3.929688 0.15625 3.128906 0.015625 2.484375 -0.265625 C 1.835938 -0.546875 1.347656 -0.910156 1.015625 -1.359375 C 0.691406 -1.816406 0.519531 -2.300781 0.5 -2.8125 C 0.5 -2.894531 0.523438 -2.96875 0.578125 -3.03125 C 0.640625 -3.09375 0.71875 -3.125 0.8125 -3.125 L 2.4375 -3.125 C 2.5625 -3.125 2.65625 -3.097656 2.71875 -3.046875 C 2.789062 -2.992188 2.859375 -2.925781 2.921875 -2.84375 C 2.992188 -2.664062 3.109375 -2.492188 3.265625 -2.328125 C 3.421875 -2.171875 3.628906 -2.039062 3.890625 -1.9375 C 4.160156 -1.84375 4.492188 -1.796875 4.890625 -1.796875 C 5.535156 -1.796875 6.019531 -1.898438 6.34375 -2.109375 C 6.675781 -2.328125 6.84375 -2.613281 6.84375 -2.96875 C 6.84375 -3.21875 6.753906 -3.421875 6.578125 -3.578125 C 6.398438 -3.742188 6.125 -3.890625 5.75 -4.015625 C 5.375 -4.148438 4.878906 -4.285156 4.265625 -4.421875 C 3.515625 -4.597656 2.875 -4.8125 2.34375 -5.0625 C 1.820312 -5.3125 1.425781 -5.640625 1.15625 -6.046875 C 0.894531 -6.453125 0.765625 -6.957031 0.765625 -7.5625 C 0.765625 -8.15625 0.925781 -8.6875 1.25 -9.15625 C 1.582031 -9.625 2.050781 -9.988281 2.65625 -10.25 C 3.257812 -10.519531 3.972656 -10.65625 4.796875 -10.65625 C 5.472656 -10.65625 6.066406 -10.5625 6.578125 -10.375 C 7.085938 -10.195312 7.515625 -9.960938 7.859375 -9.671875 C 8.210938 -9.378906 8.476562 -9.066406 8.65625 -8.734375 C 8.832031 -8.410156 8.925781 -8.09375 8.9375 -7.78125 C 8.9375 -7.695312 8.910156 -7.617188 8.859375 -7.546875 C 8.804688 -7.484375 8.726562 -7.453125 8.625 -7.453125 L 6.9375 -7.453125 C 6.84375 -7.453125 6.753906 -7.472656 6.671875 -7.515625 C 6.597656 -7.554688 6.53125 -7.625 6.46875 -7.71875 C 6.414062 -7.988281 6.238281 -8.21875 5.9375 -8.40625 C 5.644531 -8.601562 5.265625 -8.703125 4.796875 -8.703125 C 4.304688 -8.703125 3.914062 -8.613281 3.625 -8.4375 C 3.34375 -8.257812 3.203125 -7.988281 3.203125 -7.625 C 3.203125 -7.382812 3.273438 -7.179688 3.421875 -7.015625 C 3.578125 -6.847656 3.828125 -6.703125 4.171875 -6.578125 C 4.515625 -6.453125 4.972656 -6.320312 5.546875 -6.1875 C 6.421875 -6 7.128906 -5.773438 7.671875 -5.515625 C 8.222656 -5.265625 8.628906 -4.941406 8.890625 -4.546875 C 9.148438 -4.148438 9.28125 -3.65625 9.28125 -3.0625 C 9.28125 -2.394531 9.09375 -1.816406 8.71875 -1.328125 C 8.351562 -0.847656 7.835938 -0.476562 7.171875 -0.21875 C 6.515625 0.03125 5.753906 0.15625 4.890625 0.15625 Z M 4.890625 0.15625 "/></g></g></g><g fill="#057189" fill-opacity="1"><g transform="translate(226.02506, 258.428289)"><g><path d="M 1.46875 0 C 1.363281 0 1.273438 -0.03125 1.203125 -0.09375 C 1.140625 -0.164062 1.109375 -0.257812 1.109375 -0.375 L 1.109375 -10.125 C 1.109375 -10.238281 1.140625 -10.328125 1.203125 -10.390625 C 1.273438 -10.460938 1.363281 -10.5 1.46875 -10.5 L 8.28125 -10.5 C 8.382812 -10.5 8.472656 -10.460938 8.546875 -10.390625 C 8.617188 -10.328125 8.65625 -10.238281 8.65625 -10.125 L 8.65625 -8.921875 C 8.65625 -8.816406 8.617188 -8.726562 8.546875 -8.65625 C 8.472656 -8.582031 8.382812 -8.546875 8.28125 -8.546875 L 3.421875 -8.546875 L 3.421875 -6.203125 L 7.953125 -6.203125 C 8.054688 -6.203125 8.144531 -6.164062 8.21875 -6.09375 C 8.289062 -6.03125 8.328125 -5.941406 8.328125 -5.828125 L 8.328125 -4.71875 C 8.328125 -4.625 8.289062 -4.535156 8.21875 -4.453125 C 8.144531 -4.378906 8.054688 -4.34375 7.953125 -4.34375 L 3.421875 -4.34375 L 3.421875 -1.953125 L 8.40625 -1.953125 C 8.507812 -1.953125 8.597656 -1.914062 8.671875 -1.84375 C 8.742188 -1.769531 8.78125 -1.679688 8.78125 -1.578125 L 8.78125 -0.375 C 8.78125 -0.257812 8.742188 -0.164062 8.671875 -0.09375 C 8.597656 -0.03125 8.507812 0 8.40625 0 Z M 1.46875 0 "/></g></g></g><g fill="#057189" fill-opacity="1"><g transform="translate(236.990055, 258.428289)"><g><path d="M 1.46875 0 C 1.363281 0 1.273438 -0.03125 1.203125 -0.09375 C 1.140625 -0.164062 1.109375 -0.257812 1.109375 -0.375 L 1.109375 -10.125 C 1.109375 -10.238281 1.140625 -10.328125 1.203125 -10.390625 C 1.273438 -10.460938 1.363281 -10.5 1.46875 -10.5 L 3.171875 -10.5 C 3.265625 -10.5 3.347656 -10.460938 3.421875 -10.390625 C 3.492188 -10.328125 3.53125 -10.238281 3.53125 -10.125 L 3.53125 -2.03125 L 8.171875 -2.03125 C 8.285156 -2.03125 8.375 -1.992188 8.4375 -1.921875 C 8.507812 -1.847656 8.546875 -1.757812 8.546875 -1.65625 L 8.546875 -0.375 C 8.546875 -0.257812 8.507812 -0.164062 8.4375 -0.09375 C 8.375 -0.03125 8.285156 0 8.171875 0 Z M 1.46875 0 "/></g></g></g><g fill="#057189" fill-opacity="1"><g transform="translate(247.310051, 258.428289)"><g><path d="M 1.46875 0 C 1.363281 0 1.273438 -0.03125 1.203125 -0.09375 C 1.140625 -0.164062 1.109375 -0.257812 1.109375 -0.375 L 1.109375 -10.125 C 1.109375 -10.238281 1.140625 -10.328125 1.203125 -10.390625 C 1.273438 -10.460938 1.363281 -10.5 1.46875 -10.5 L 8.171875 -10.5 C 8.285156 -10.5 8.375 -10.460938 8.4375 -10.390625 C 8.507812 -10.328125 8.546875 -10.238281 8.546875 -10.125 L 8.546875 -8.828125 C 8.546875 -8.734375 8.507812 -8.648438 8.4375 -8.578125 C 8.375 -8.503906 8.285156 -8.46875 8.171875 -8.46875 L 3.46875 -8.46875 L 3.46875 -5.9375 L 7.875 -5.9375 C 7.988281 -5.9375 8.078125 -5.898438 8.140625 -5.828125 C 8.210938 -5.765625 8.25 -5.675781 8.25 -5.5625 L 8.25 -4.296875 C 8.25 -4.191406 8.210938 -4.101562 8.140625 -4.03125 C 8.078125 -3.96875 7.988281 -3.9375 7.875 -3.9375 L 3.46875 -3.9375 L 3.46875 -0.375 C 3.46875 -0.257812 3.429688 -0.164062 3.359375 -0.09375 C 3.285156 -0.03125 3.195312 0 3.09375 0 Z M 1.46875 0 "/></g></g></g></svg>